<?xml version="1.0" standalone="no"?>
<!DOCTYPE svg PUBLIC "-//W3C//DTD SVG 20010904//EN"
 "http://www.w3.org/TR/2001/REC-SVG-20010904/DTD/svg10.dtd">
<svg version="1.0" xmlns="http://www.w3.org/2000/svg"
 width="600.000000pt" height="600.000000pt" viewBox="0 0 600.000000 600.000000"
 preserveAspectRatio="xMidYMid meet">
<metadata>
Created by potrace 1.14, written by Peter Selinger 2001-2017
</metadata>
<g transform="translate(0.000000,600.000000) scale(0.100000,-0.100000)"
fill="#000000" stroke="none">
<path d="M2285 4603 c-46 -12 -45 6 -45 -605 0 -380 4 -586 10 -599 10 -17 22
-19 113 -19 67 0 107 4 115 12 9 9 12 91 12 306 0 230 3 293 13 290 6 -3 51
-74 98 -159 47 -85 104 -185 125 -224 l40 -70 80 -3 c66 -2 84 0 95 14 8 9 66
111 129 227 63 115 120 209 125 208 6 0 11 -106 13 -288 1 -191 6 -291 13
-300 8 -9 41 -13 115 -13 92 0 104 2 114 19 14 27 14 1155 0 1182 -10 17 -22
19 -115 19 -97 0 -106 -2 -119 -22 -8 -13 -90 -164 -183 -336 -93 -173 -173
-314 -178 -314 -5 0 -85 142 -179 315 -94 173 -178 325 -187 338 -15 22 -24
24 -100 26 -46 1 -93 -1 -104 -4z"/>
<path d="M4051 4597 c-7 -9 -11 -192 -13 -598 l-3 -585 -28 -42 c-47 -72 -88
-86 -259 -90 -105 -3 -150 -8 -158 -17 -7 -8 -10 -54 -8 -121 l3 -109 157 -3
c138 -2 165 0 220 19 126 42 235 137 291 256 l32 68 3 609 c2 487 0 611 -10
618 -23 14 -214 10 -227 -5z"/>
<path d="M1197 4594 c-4 -4 -7 -352 -7 -774 0 -582 3 -769 12 -778 18 -18 212
-16 227 1 8 10 12 204 13 663 l3 649 150 3 c139 2 153 1 194 -20 82 -42 108
-110 92 -239 -17 -132 -76 -179 -223 -179 -122 0 -121 1 -116 -187 4 -137 7
-156 41 -254 19 -59 44 -124 55 -145 61 -120 180 -231 298 -278 59 -24 66 -24
405 -27 189 -1 353 -4 365 -6 16 -3 20 -10 16 -28 -3 -19 -15 -26 -70 -40
-187 -47 -324 -180 -388 -375 -15 -46 -18 -102 -22 -358 -4 -338 3 -403 59
-509 18 -34 26 -59 20 -63 -6 -3 -73 -6 -148 -5 -112 0 -144 4 -171 18 -54 29
-109 92 -146 165 -32 63 -72 180 -64 186 1 1 30 13 63 25 114 41 214 139 255
249 27 71 42 222 30 295 -14 86 -43 141 -112 213 -67 71 -144 114 -236 133
-78 16 -1624 15 -1640 -1 -17 -17 -16 -212 1 -227 8 -6 80 -12 188 -13 l174
-3 3 -624 c1 -441 5 -628 13 -638 15 -17 209 -19 227 -1 9 9 12 162 12 627 0
339 4 622 8 629 7 10 112 12 510 10 488 -3 501 -4 528 -24 55 -40 69 -70 72
-153 5 -97 -10 -153 -53 -199 l-33 -36 -115 -6 c-74 -3 -120 -10 -131 -19 -13
-11 -16 -35 -16 -140 0 -154 20 -243 86 -380 37 -79 58 -108 127 -176 59 -59
102 -91 152 -116 l70 -34 515 0 c515 0 515 0 580 23 175 63 307 195 362 361
20 61 22 89 26 361 3 238 0 309 -12 370 -45 218 -201 383 -411 436 -62 16 -66
18 -63 43 l3 26 228 1 c139 0 231 4 238 11 6 6 9 54 7 119 l-3 109 -705 5
c-525 4 -712 8 -732 17 -82 37 -154 141 -189 275 -28 108 -27 111 32 132 112
41 227 157 266 269 14 40 18 83 18 188 l0 135 -38 76 c-45 91 -112 157 -207
202 l-65 31 -310 3 c-171 2 -314 0 -318 -4z m1838 -1888 c55 -24 119 -89 147
-150 22 -50 23 -58 23 -366 0 -299 -1 -317 -21 -361 -31 -66 -78 -114 -142
-146 -54 -26 -64 -28 -192 -28 -128 0 -138 2 -192 28 -64 32 -111 80 -142 146
-20 44 -21 62 -21 361 0 311 0 316 24 368 30 65 107 137 170 157 65 21 290 15
346 -9z"/>
<path d="M3665 2913 c-50 -3 -74 -8 -82 -20 -17 -22 -19 -1443 -3 -1474 10
-17 22 -19 113 -19 56 0 109 5 117 10 13 8 16 73 20 451 4 333 8 439 16 428
11 -13 97 -160 207 -354 22 -38 45 -73 51 -77 6 -4 43 -8 83 -8 l71 0 29 48
c16 26 74 127 127 225 54 97 102 177 107 177 5 0 9 -192 9 -437 0 -241 4 -444
8 -451 6 -9 38 -12 123 -10 l114 3 5 733 c3 403 2 742 -2 753 -7 17 -18 19
-116 19 -91 0 -111 -3 -124 -17 -8 -10 -63 -108 -121 -218 -163 -308 -224
-419 -234 -422 -5 -2 -83 134 -173 303 -91 168 -174 317 -185 330 -23 28 -53
33 -160 27z"/>
<path d="M4909 2889 c-12 -24 -8 -1456 5 -1477 10 -17 222 -17 233 1 4 6 10
291 13 632 l5 620 145 0 c166 0 187 -4 234 -46 48 -42 69 -102 64 -182 -8
-127 -85 -187 -239 -187 -113 0 -115 -2 -110 -129 1 -53 8 -102 14 -109 8 -11
40 -13 137 -10 116 3 130 5 193 35 79 38 163 114 200 181 78 144 76 345 -6
484 -31 53 -111 129 -163 156 -93 47 -131 52 -430 52 -277 0 -284 0 -295 -21z"/>
<path d="M1202 2578 c-17 -17 -17 -1139 0 -1156 15 -15 191 -16 219 -2 18 10
19 27 19 574 0 533 -1 564 -18 579 -15 13 -39 17 -113 17 -61 0 -99 -4 -107
-12z"/>
</g>
</svg>
